<svg width="32" height="32" viewBox="0 0 32 32" fill="none" xmlns="http://www.w3.org/2000/svg">
<rect width="32" height="32" rx="5" fill="#282876"/>
<path d="M27 16C27 17.4445 26.7155 18.8749 26.1627 20.2095C25.6099 21.5441 24.7996 22.7567 23.7782 23.7782C22.7567 24.7996 21.5441 25.6099 20.2095 26.1627C18.8749 26.7155 17.4445 27 16 27C14.5555 27 13.1251 26.7155 11.7905 26.1627C10.4559 25.6099 9.24327 24.7996 8.22182 23.7782C7.20038 22.7567 6.39013 21.5441 5.83732 20.2095C5.28452 18.8749 5 17.4445 5 16L16 16H27Z" fill="white"/>
<path d="M8.22183 23.7782C7.20038 22.7567 6.39013 21.5441 5.83733 20.2095C5.28453 18.8749 5 17.4445 5 16C5 14.5555 5.28453 13.1251 5.83733 11.7905C6.39013 10.4559 7.20038 9.24327 8.22183 8.22182C9.24327 7.20038 10.4559 6.39012 11.7905 5.83732C13.1251 5.28452 14.5555 5 16 5C17.4445 5 18.8749 5.28452 20.2095 5.83732C21.5441 6.39013 22.7567 7.20038 23.7782 8.22183L16 16L8.22183 23.7782Z" fill="white"/>
</svg>
