<svg width="273" height="5" viewBox="0 0 273 5" fill="none" xmlns="http://www.w3.org/2000/svg">
<g clip-path="url(#clip0_2_153)">
<path fill-rule="evenodd" clip-rule="evenodd" d="M0.406249 4.52826C-0.109769 4.52826 -0.604652 4.32327 -0.969531 3.95839C-1.33441 3.59351 -1.5394 3.09863 -1.5394 2.58261C-1.5394 2.06659 -1.33441 1.57171 -0.969531 1.20683C-0.604652 0.84195 -0.109769 0.636963 0.406249 0.636963C0.922267 0.636963 1.41715 0.84195 1.78203 1.20683C2.14691 1.57171 2.3519 2.06659 2.3519 2.58261C2.3519 3.09863 2.14691 3.59351 1.78203 3.95839C1.41715 4.32327 0.922267 4.52826 0.406249 4.52826ZM272.797 4.52826C272.281 4.52826 271.786 4.32327 271.421 3.95839C271.056 3.59351 270.851 3.09863 270.851 2.58261C270.851 2.06659 271.056 1.57171 271.421 1.20683C271.786 0.84195 272.281 0.636963 272.797 0.636963C273.313 0.636963 273.808 0.84195 274.173 1.20683C274.538 1.57171 274.743 2.06659 274.743 2.58261C274.743 3.09863 274.538 3.59351 274.173 3.95839C273.808 4.32327 273.313 4.52826 272.797 4.52826ZM256.259 4.52826C255.743 4.52826 255.248 4.32327 254.883 3.95839C254.518 3.59351 254.313 3.09863 254.313 2.58261C254.313 2.06659 254.518 1.57171 254.883 1.20683C255.248 0.84195 255.743 0.636963 256.259 0.636963C256.775 0.636963 257.27 0.84195 257.635 1.20683C258 1.57171 258.205 2.06659 258.205 2.58261C258.205 3.09863 258 3.59351 257.635 3.95839C257.27 4.32327 256.775 4.52826 256.259 4.52826ZM222.21 4.52826C221.694 4.52826 221.199 4.32327 220.834 3.95839C220.469 3.59351 220.264 3.09863 220.264 2.58261C220.264 2.06659 220.469 1.57171 220.834 1.20683C221.199 0.84195 221.694 0.636963 222.21 0.636963C222.726 0.636963 223.221 0.84195 223.586 1.20683C223.951 1.57171 224.156 2.06659 224.156 2.58261C224.156 3.09863 223.951 3.59351 223.586 3.95839C223.221 4.32327 222.726 4.52826 222.21 4.52826ZM188.161 4.52826C187.645 4.52826 187.15 4.32327 186.785 3.95839C186.421 3.59351 186.216 3.09863 186.216 2.58261C186.216 2.06659 186.421 1.57171 186.785 1.20683C187.15 0.84195 187.645 0.636963 188.161 0.636963C188.677 0.636963 189.172 0.84195 189.537 1.20683C189.902 1.57171 190.107 2.06659 190.107 2.58261C190.107 3.09863 189.902 3.59351 189.537 3.95839C189.172 4.32327 188.677 4.52826 188.161 4.52826ZM154.112 4.52826C153.596 4.52826 153.101 4.32327 152.737 3.95839C152.372 3.59351 152.167 3.09863 152.167 2.58261C152.167 2.06659 152.372 1.57171 152.737 1.20683C153.101 0.84195 153.596 0.636963 154.112 0.636963C154.628 0.636963 155.123 0.84195 155.488 1.20683C155.853 1.57171 156.058 2.06659 156.058 2.58261C156.058 3.09863 155.853 3.59351 155.488 3.95839C155.123 4.32327 154.628 4.52826 154.112 4.52826ZM136.602 4.52826C136.086 4.52826 135.591 4.32327 135.226 3.95839C134.861 3.59351 134.656 3.09863 134.656 2.58261C134.656 2.06659 134.861 1.57171 135.226 1.20683C135.591 0.84195 136.086 0.636963 136.602 0.636963C137.118 0.636963 137.612 0.84195 137.977 1.20683C138.342 1.57171 138.547 2.06659 138.547 2.58261C138.547 3.09863 138.342 3.59351 137.977 3.95839C137.612 4.32327 137.118 4.52826 136.602 4.52826ZM120.064 4.52826C119.548 4.52826 119.053 4.32327 118.688 3.95839C118.323 3.59351 118.118 3.09863 118.118 2.58261C118.118 2.06659 118.323 1.57171 118.688 1.20683C119.053 0.84195 119.548 0.636963 120.064 0.636963C120.58 0.636963 121.074 0.84195 121.439 1.20683C121.804 1.57171 122.009 2.06659 122.009 2.58261C122.009 3.09863 121.804 3.59351 121.439 3.95839C121.074 4.32327 120.58 4.52826 120.064 4.52826ZM238.748 4.52826C238.232 4.52826 237.737 4.32327 237.372 3.95839C237.007 3.59351 236.802 3.09863 236.802 2.58261C236.802 2.06659 237.007 1.57171 237.372 1.20683C237.737 0.84195 238.232 0.636963 238.748 0.636963C239.264 0.636963 239.759 0.84195 240.124 1.20683C240.489 1.57171 240.694 2.06659 240.694 2.58261C240.694 3.09863 240.489 3.59351 240.124 3.95839C239.759 4.32327 239.264 4.52826 238.748 4.52826ZM204.699 4.52826C204.183 4.52826 203.688 4.32327 203.323 3.95839C202.959 3.59351 202.754 3.09863 202.754 2.58261C202.754 2.06659 202.959 1.57171 203.323 1.20683C203.688 0.84195 204.183 0.636963 204.699 0.636963C205.215 0.636963 205.71 0.84195 206.075 1.20683C206.44 1.57171 206.645 2.06659 206.645 2.58261C206.645 3.09863 206.44 3.59351 206.075 3.95839C205.71 4.32327 205.215 4.52826 204.699 4.52826ZM170.65 4.52826C170.134 4.52826 169.639 4.32327 169.275 3.95839C168.91 3.59351 168.705 3.09863 168.705 2.58261C168.705 2.06659 168.91 1.57171 169.275 1.20683C169.639 0.84195 170.134 0.636963 170.65 0.636963C171.166 0.636963 171.661 0.84195 172.026 1.20683C172.391 1.57171 172.596 2.06659 172.596 2.58261C172.596 3.09863 172.391 3.59351 172.026 3.95839C171.661 4.32327 171.166 4.52826 170.65 4.52826ZM102.553 4.52826C102.037 4.52826 101.542 4.32327 101.177 3.95839C100.812 3.59351 100.607 3.09863 100.607 2.58261C100.607 2.06659 100.812 1.57171 101.177 1.20683C101.542 0.84195 102.037 0.636963 102.553 0.636963C103.069 0.636963 103.564 0.84195 103.929 1.20683C104.293 1.57171 104.498 2.06659 104.498 2.58261C104.498 3.09863 104.293 3.59351 103.929 3.95839C103.564 4.32327 103.069 4.52826 102.553 4.52826ZM86.0147 4.52826C85.4987 4.52826 85.0038 4.32327 84.639 3.95839C84.2741 3.59351 84.0691 3.09863 84.0691 2.58261C84.0691 2.06659 84.2741 1.57171 84.639 1.20683C85.0038 0.84195 85.4987 0.636963 86.0147 0.636963C86.5308 0.636963 87.0256 0.84195 87.3905 1.20683C87.7554 1.57171 87.9604 2.06659 87.9604 2.58261C87.9604 3.09863 87.7554 3.59351 87.3905 3.95839C87.0256 4.32327 86.5308 4.52826 86.0147 4.52826ZM68.5039 4.52826C67.9879 4.52826 67.493 4.32327 67.1281 3.95839C66.7632 3.59351 66.5583 3.09863 66.5583 2.58261C66.5583 2.06659 66.7632 1.57171 67.1281 1.20683C67.493 0.84195 67.9879 0.636963 68.5039 0.636963C69.0199 0.636963 69.5148 0.84195 69.8797 1.20683C70.2446 1.57171 70.4496 2.06659 70.4496 2.58261C70.4496 3.09863 70.2446 3.59351 69.8797 3.95839C69.5148 4.32327 69.0199 4.52826 68.5039 4.52826ZM51.9659 4.52826C51.4499 4.52826 50.955 4.32327 50.5901 3.95839C50.2252 3.59351 50.0203 3.09863 50.0203 2.58261C50.0203 2.06659 50.2252 1.57171 50.5901 1.20683C50.955 0.84195 51.4499 0.636963 51.9659 0.636963C52.4819 0.636963 52.9768 0.84195 53.3417 1.20683C53.7066 1.57171 53.9116 2.06659 53.9116 2.58261C53.9116 3.09863 53.7066 3.59351 53.3417 3.95839C52.9768 4.32327 52.4819 4.52826 51.9659 4.52826ZM34.4551 4.52826C33.9391 4.52826 33.4442 4.32327 33.0793 3.95839C32.7144 3.59351 32.5094 3.09863 32.5094 2.58261C32.5094 2.06659 32.7144 1.57171 33.0793 1.20683C33.4442 0.84195 33.9391 0.636963 34.4551 0.636963C34.9711 0.636963 35.466 0.84195 35.8309 1.20683C36.1957 1.57171 36.4007 2.06659 36.4007 2.58261C36.4007 3.09863 36.1957 3.59351 35.8309 3.95839C35.466 4.32327 34.9711 4.52826 34.4551 4.52826ZM17.9171 4.52826C17.4011 4.52826 16.9062 4.32327 16.5413 3.95839C16.1764 3.59351 15.9714 3.09863 15.9714 2.58261C15.9714 2.06659 16.1764 1.57171 16.5413 1.20683C16.9062 0.84195 17.4011 0.636963 17.9171 0.636963C18.4331 0.636963 18.928 0.84195 19.2929 1.20683C19.6577 1.57171 19.8627 2.06659 19.8627 2.58261C19.8627 3.09863 19.6577 3.59351 19.2929 3.95839C18.928 4.32327 18.4331 4.52826 17.9171 4.52826Z" fill="#495DCF" fill-opacity="0.2"/>
</g>
<defs>
<clipPath id="clip0_2_153">
<rect width="272.391" height="3.89129" fill="white" transform="translate(0.40625 0.636963)"/>
</clipPath>
</defs>
</svg>
