<svg width="544" height="84" viewBox="0 0 544 84" fill="none" xmlns="http://www.w3.org/2000/svg">
<rect width="535" height="84" rx="10" fill="#EFEFF3"/>
<path d="M35 32C34.2044 32 33.4413 32.3161 32.8787 32.8787C32.3161 33.4413 32 34.2044 32 35V43C32 43.7956 32.3161 44.5587 32.8787 45.1213C33.4413 45.6839 34.2044 46 35 46C35.7956 46 36.5587 45.6839 37.1213 45.1213C37.6839 44.5587 38 43.7956 38 43V35C38 34.2044 37.6839 33.4413 37.1213 32.8787C36.5587 32.3161 35.7956 32 35 32V32Z" stroke="#3B404A" stroke-width="2" stroke-linecap="round" stroke-linejoin="round"/>
<path d="M42 41V43C42 44.8565 41.2625 46.637 39.9497 47.9497C38.637 49.2625 36.8565 50 35 50C33.1435 50 31.363 49.2625 30.0503 47.9497C28.7375 46.637 28 44.8565 28 43V41" stroke="#3B404A" stroke-width="2" stroke-linecap="round" stroke-linejoin="round"/>
<path d="M35 50V54" stroke="#3B404A" stroke-width="2" stroke-linecap="round" stroke-linejoin="round"/>
<path d="M31 54H39" stroke="#3B404A" stroke-width="2" stroke-linecap="round" stroke-linejoin="round"/>
<rect x="70" y="41" width="2" height="3" fill="#898E9C"/>
<rect x="202" y="41" width="2" height="3" fill="#898E9C"/>
<rect x="334" y="41" width="2" height="3" fill="#898E9C"/>
<rect x="74" y="41" width="2" height="3" fill="#898E9C"/>
<rect x="206" y="41" width="2" height="3" fill="#898E9C"/>
<rect x="338" y="41" width="2" height="3" fill="#898E9C"/>
<rect x="78" y="40" width="2" height="5" fill="#898E9C"/>
<rect x="210" y="40" width="2" height="5" fill="#898E9C"/>
<rect x="342" y="40" width="2" height="5" fill="#898E9C"/>
<rect x="82" y="39" width="2" height="7" fill="#898E9C"/>
<rect x="214" y="39" width="2" height="7" fill="#898E9C"/>
<rect x="346" y="38" width="2" height="9" fill="#898E9C"/>
<rect x="86" y="41" width="2" height="3" fill="#898E9C"/>
<rect x="218" y="41" width="2" height="3" fill="#898E9C"/>
<rect x="350" y="41" width="2" height="3" fill="#898E9C"/>
<rect x="90" y="39" width="2" height="7" fill="#898E9C"/>
<rect x="222" y="39" width="2" height="7" fill="#898E9C"/>
<rect x="354" y="38" width="2" height="9" fill="#898E9C"/>
<rect x="94" y="37" width="2" height="11" fill="#898E9C"/>
<rect x="226" y="37" width="2" height="11" fill="#898E9C"/>
<rect x="358" y="36" width="2" height="13" fill="#898E9C"/>
<rect x="98" y="39" width="2" height="7" fill="#898E9C"/>
<rect x="230" y="39" width="2" height="7" fill="#898E9C"/>
<rect x="362" y="38" width="2" height="9" fill="#898E9C"/>
<rect x="102" y="36" width="2" height="13" fill="#898E9C"/>
<rect x="234" y="36" width="2" height="13" fill="#898E9C"/>
<rect x="366" y="35" width="2" height="15" fill="#898E9C"/>
<rect x="106" y="36" width="2" height="13" fill="#898E9C"/>
<rect x="238" y="36" width="2" height="13" fill="#898E9C"/>
<rect x="370" y="35" width="2" height="15" fill="#898E9C"/>
<rect x="110" y="35" width="2" height="15" fill="#898E9C"/>
<rect x="242" y="35" width="2" height="15" fill="#898E9C"/>
<rect x="374" y="34" width="2" height="17" fill="#898E9C"/>
<rect x="114" y="31" width="2" height="23" fill="#898E9C"/>
<rect x="246" y="31" width="2" height="23" fill="#898E9C"/>
<rect x="378" y="29" width="2" height="27" fill="#898E9C"/>
<rect x="118" y="34" width="2" height="17" fill="#898E9C"/>
<rect x="250" y="39" width="2" height="7" fill="#898E9C"/>
<rect x="382" y="34" width="2" height="17" fill="#898E9C"/>
<rect x="122" y="29" width="2" height="27" fill="#898E9C"/>
<rect x="254" y="36" width="2" height="13" fill="#898E9C"/>
<rect x="386" y="29" width="2" height="27" fill="#898E9C"/>
<rect x="466" y="29" width="2" height="27" fill="#898E9C"/>
<rect x="126" y="28" width="2" height="29" fill="#898E9C"/>
<rect x="258" y="36" width="2" height="13" fill="#898E9C"/>
<rect x="390" y="28" width="2" height="29" fill="#898E9C"/>
<rect x="470" y="28" width="2" height="29" fill="#898E9C"/>
<rect x="130" y="28" width="2" height="29" fill="#898E9C"/>
<rect x="262" y="36" width="2" height="13" fill="#898E9C"/>
<rect x="394" y="34" width="2" height="17" fill="#898E9C"/>
<rect x="474" y="34" width="2" height="17" fill="#898E9C"/>
<rect x="134" y="33" width="2" height="19" fill="#898E9C"/>
<rect x="266" y="33" width="2" height="19" fill="#898E9C"/>
<rect x="398" y="37" width="2" height="11" fill="#898E9C"/>
<rect x="478" y="37" width="2" height="11" fill="#898E9C"/>
<rect x="138" y="35" width="2" height="15" fill="#898E9C"/>
<rect x="270" y="35" width="2" height="15" fill="#898E9C"/>
<rect x="402" y="38" width="2" height="9" fill="#898E9C"/>
<rect x="482" y="38" width="2" height="9" fill="#898E9C"/>
<rect x="142" y="36" width="2" height="13" fill="#898E9C"/>
<rect x="274" y="36" width="2" height="13" fill="#898E9C"/>
<rect x="406" y="39" width="2" height="7" fill="#898E9C"/>
<rect x="486" y="39" width="2" height="7" fill="#898E9C"/>
<rect x="146" y="39" width="2" height="7" fill="#898E9C"/>
<rect x="278" y="37" width="2" height="11" fill="#898E9C"/>
<rect x="410" y="39" width="2" height="7" fill="#898E9C"/>
<rect x="490" y="39" width="2" height="7" fill="#898E9C"/>
<rect x="150" y="41" width="2" height="3" fill="#898E9C"/>
<rect x="282" y="40" width="2" height="5" fill="#898E9C"/>
<rect x="414" y="41" width="2" height="3" fill="#898E9C"/>
<rect x="494" y="41" width="2" height="3" fill="#898E9C"/>
<rect x="154" y="41" width="2" height="3" fill="#898E9C"/>
<rect x="286" y="40" width="2" height="5" fill="#898E9C"/>
<rect x="418" y="41" width="2" height="3" fill="#898E9C"/>
<rect x="498" y="41" width="2" height="3" fill="#898E9C"/>
<rect x="158" y="41" width="2" height="3" fill="#898E9C"/>
<rect x="290" y="40" width="2" height="5" fill="#898E9C"/>
<rect x="422" y="41" width="2" height="3" fill="#898E9C"/>
<rect x="502" y="41" width="2" height="3" fill="#898E9C"/>
<rect x="162" y="36" width="2" height="13" fill="#898E9C"/>
<rect x="294" y="32" width="2" height="21" fill="#898E9C"/>
<rect x="426" y="36" width="2" height="13" fill="#898E9C"/>
<rect x="506" y="36" width="2" height="13" fill="#898E9C"/>
<rect x="166" y="34" width="2" height="17" fill="#898E9C"/>
<rect x="298" y="34" width="2" height="17" fill="#898E9C"/>
<rect x="430" y="34" width="2" height="17" fill="#898E9C"/>
<rect x="510" y="34" width="2" height="17" fill="#898E9C"/>
<rect x="170" y="37" width="2" height="11" fill="#898E9C"/>
<rect x="302" y="37" width="2" height="11" fill="#898E9C"/>
<rect x="434" y="37" width="2" height="11" fill="#898E9C"/>
<rect x="514" y="37" width="2" height="11" fill="#898E9C"/>
<rect x="174" y="35" width="2" height="15" fill="#898E9C"/>
<rect x="306" y="35" width="2" height="15" fill="#898E9C"/>
<rect x="438" y="35" width="2" height="15" fill="#898E9C"/>
<rect x="518" y="35" width="2" height="15" fill="#898E9C"/>
<rect x="178" y="33" width="2" height="19" fill="#898E9C"/>
<rect x="310" y="33" width="2" height="19" fill="#898E9C"/>
<rect x="442" y="38" width="2" height="9" fill="#898E9C"/>
<rect x="522" y="38" width="2" height="9" fill="#898E9C"/>
<rect x="182" y="35" width="2" height="15" fill="#898E9C"/>
<rect x="314" y="35" width="2" height="15" fill="#898E9C"/>
<rect x="446" y="39" width="2" height="7" fill="#898E9C"/>
<rect x="526" y="39" width="2" height="7" fill="#898E9C"/>
<rect x="186" y="33" width="2" height="19" fill="#898E9C"/>
<rect x="318" y="33" width="2" height="19" fill="#898E9C"/>
<rect x="450" y="38" width="2" height="9" fill="#898E9C"/>
<rect x="530" y="38" width="2" height="9" fill="#898E9C"/>
<rect x="190" y="34" width="2" height="17" fill="#898E9C"/>
<rect x="322" y="34" width="2" height="17" fill="#898E9C"/>
<rect x="454" y="38" width="2" height="9" fill="#898E9C"/>
<rect x="534" y="38" width="2" height="9" fill="#898E9C"/>
<rect x="194" y="32" width="2" height="21" fill="#898E9C"/>
<rect x="326" y="32" width="2" height="21" fill="#898E9C"/>
<rect x="458" y="37" width="2" height="11" fill="#898E9C"/>
<rect x="538" y="37" width="2" height="11" fill="#898E9C"/>
<rect x="198" y="36" width="2" height="13" fill="#898E9C"/>
<rect x="330" y="36" width="2" height="13" fill="#898E9C"/>
<rect x="462" y="36" width="2" height="13" fill="#898E9C"/>
<rect x="542" y="36" width="2" height="13" fill="#898E9C"/>
</svg>
