<svg width="150" height="78" viewBox="0 0 150 78" fill="none" xmlns="http://www.w3.org/2000/svg">
<path d="M27.4584 62.7142L11.0919 77.9108L23.943 58.5685C18.8554 39.5811 39.9428 26.2993 79.203 15.7796C118.463 5.25984 140.478 8.90028 143.658 20.7674C146.838 32.6345 123.264 47.8544 90.1732 56.721C63.7006 63.8143 37.3331 63.672 27.4584 62.7142Z" fill="#FF8057"/>
<path d="M52.4051 48.0241L47.1195 49.4404L46.868 52.3962L45.1989 52.8434L46.3518 39.6205L48.1774 39.1313L55.77 50.0109L54.1008 50.4582L52.4051 48.0241ZM51.6083 46.8586L47.7777 41.3255L47.2268 48.0326L51.6083 46.8586ZM56.0146 36.9568L59.2617 49.0753L57.6795 49.4993L54.4324 37.3807L56.0146 36.9568ZM73.3611 32.3088L72.0356 45.6525L70.21 46.1417L62.3902 35.2485L64.0767 34.7966L70.6843 44.2257L71.692 32.756L73.3611 32.3088ZM76.1927 32.6682C75.8913 32.7489 75.6084 32.7129 75.3438 32.5602C75.0793 32.4075 74.9066 32.1804 74.8259 31.879C74.7451 31.5777 74.7811 31.2947 74.9339 31.0302C75.0866 30.7656 75.3137 30.593 75.615 30.5122C75.9048 30.4346 76.1762 30.4737 76.4291 30.6295C76.6937 30.7823 76.8663 31.0093 76.9471 31.3107C77.0278 31.612 76.9918 31.895 76.8391 32.1596C76.6979 32.421 76.4825 32.5905 76.1927 32.6682ZM77.3723 34.0106L79.9253 43.5385L78.3432 43.9624L75.7902 34.4346L77.3723 34.0106ZM80.7449 38.1756C80.4841 37.202 80.4528 36.2972 80.6513 35.4614C80.8466 34.614 81.2318 33.8958 81.807 33.3069C82.3938 32.7148 83.116 32.3039 83.9738 32.074C84.7156 31.8753 85.4518 31.8643 86.1825 32.0413C86.9101 32.2066 87.5165 32.5224 88.0017 32.9887L86.6507 27.9466L88.2503 27.518L91.6977 40.3841L90.0982 40.8127L89.6183 39.0219C89.4575 39.6737 89.1197 40.2674 88.6047 40.8029C88.0867 41.3268 87.4162 41.699 86.5932 41.9196C85.7471 42.1463 84.9204 42.1442 84.1131 41.9133C83.3174 41.6792 82.6216 41.2383 82.0256 40.5905C81.4296 39.9426 81.0027 39.1377 80.7449 38.1756ZM88.817 36.0314C88.6245 35.3127 88.3118 34.7256 87.8792 34.2701C87.4466 33.8145 86.9438 33.5144 86.3708 33.3698C85.8063 33.2105 85.2285 33.21 84.6374 33.3684C84.0462 33.5268 83.5445 33.8103 83.1322 34.2189C82.7199 34.6276 82.4403 35.1373 82.2934 35.7481C82.1465 36.359 82.1693 37.0237 82.3619 37.7424C82.5576 38.4726 82.8733 39.0713 83.309 39.5384C83.7417 39.994 84.2402 40.3014 84.8047 40.4608C85.3661 40.6085 85.9423 40.6032 86.5335 40.4448C87.1246 40.2864 87.6263 40.0029 88.0386 39.5942C88.4594 39.1709 88.7432 38.6538 88.8901 38.043C89.034 37.4206 89.0096 36.75 88.817 36.0314ZM101.69 32.2092C101.771 32.5106 101.839 32.834 101.895 33.1795L94.2792 35.22C94.5887 36.1434 95.1047 36.794 95.8271 37.1719C96.558 37.5351 97.3408 37.6049 98.1753 37.3813C98.8592 37.198 99.3852 36.8893 99.7534 36.4553C100.13 36.0065 100.34 35.4906 100.382 34.9078L102.086 34.4512C102.077 35.4352 101.767 36.3195 101.157 37.104C100.544 37.877 99.67 38.4157 98.5341 38.72C97.6299 38.9623 96.7642 38.9768 95.9369 38.7637C95.1211 38.5475 94.411 38.1228 93.8065 37.4897C93.199 36.845 92.7632 36.03 92.4992 35.0447C92.2352 34.0595 92.2009 33.1431 92.3962 32.2957C92.5915 31.4483 92.9899 30.7328 93.5914 30.1492C94.2013 29.551 94.9699 29.1276 95.8972 28.8792C96.8013 28.6369 97.6539 28.6197 98.455 28.8274C99.256 29.0352 99.9352 29.4371 100.492 30.0332C101.058 30.6145 101.458 31.3399 101.69 32.2092ZM99.9676 32.3168C99.8061 31.7141 99.5346 31.234 99.1531 30.8765C98.7685 30.5075 98.3148 30.275 97.7922 30.179C97.278 30.0683 96.7428 30.0875 96.1864 30.2366C95.3866 30.4509 94.771 30.8891 94.3397 31.5513C93.92 32.2104 93.7907 33.0029 93.9518 33.9287L99.9676 32.3168ZM109.351 35.8217C108.458 36.0609 107.592 36.0755 106.753 35.8654C105.926 35.6523 105.204 35.2307 104.588 34.6007C103.981 33.956 103.545 33.141 103.281 32.1558C103.02 31.1821 102.999 30.2685 103.217 29.4148C103.444 28.5465 103.87 27.8174 104.495 27.2277C105.116 26.6263 105.879 26.2045 106.783 25.9623C107.687 25.72 108.559 25.7039 109.398 25.9139C110.234 26.1123 110.96 26.5266 111.576 27.1566C112.203 27.7835 112.649 28.5896 112.913 29.5748C113.177 30.5601 113.19 31.4884 112.951 32.3599C112.721 33.2166 112.29 33.9472 111.656 34.5517C111.023 35.1561 110.255 35.5795 109.351 35.8217ZM108.978 34.4308C109.546 34.2786 110.043 34.0025 110.47 33.6023C110.897 33.2022 111.19 32.6951 111.349 32.0812C111.519 31.4641 111.501 30.7731 111.296 30.0081C111.091 29.2431 110.767 28.6343 110.322 28.1819C109.878 27.7295 109.378 27.441 108.823 27.3164C108.265 27.1803 107.702 27.1883 107.134 27.3405C106.554 27.4957 106.057 27.7719 105.642 28.169C105.235 28.5513 104.958 29.0479 104.811 29.6587C104.664 30.2696 104.693 30.9575 104.898 31.7225C105.106 32.4991 105.421 33.1167 105.842 33.5754C106.274 34.0309 106.764 34.3283 107.311 34.4676C107.854 34.5953 108.41 34.583 108.978 34.4308ZM119.69 33.0514C118.959 33.2471 118.272 33.3009 117.627 33.2127C116.979 33.113 116.428 32.888 115.974 32.5376C115.517 32.1756 115.193 31.7095 115.003 31.1393L116.637 30.7013C116.811 31.1641 117.135 31.4934 117.61 31.6892C118.097 31.8819 118.664 31.8912 119.313 31.7173C119.916 31.5558 120.356 31.2952 120.632 30.9354C120.908 30.5756 120.992 30.1929 120.883 29.7872C120.772 29.3699 120.504 29.1125 120.08 29.0148C119.653 28.9055 119.025 28.8564 118.196 28.8675C117.439 28.8715 116.81 28.8413 116.308 28.777C115.815 28.698 115.356 28.5165 114.932 28.2325C114.517 27.9339 114.227 27.4774 114.062 26.863C113.932 26.3762 113.957 25.8911 114.138 25.4078C114.319 24.9245 114.645 24.4955 115.116 24.1208C115.584 23.7345 116.16 23.4497 116.844 23.2665C117.899 22.9838 118.822 23.0222 119.614 23.3814C120.406 23.7407 120.95 24.3778 121.244 25.2926L119.662 25.7166C119.494 25.2275 119.184 24.8819 118.732 24.6799C118.292 24.4749 117.765 24.4546 117.151 24.6192C116.583 24.7714 116.163 25.0142 115.892 25.3477C115.621 25.6812 115.539 26.045 115.644 26.4391C115.728 26.7521 115.897 26.9865 116.15 27.1423C116.411 27.2834 116.709 27.3774 117.045 27.4241C117.389 27.4562 117.854 27.4746 118.439 27.4793C119.172 27.4815 119.778 27.5179 120.257 27.5884C120.732 27.6474 121.169 27.8161 121.567 28.0947C121.976 28.3702 122.264 28.7961 122.431 29.3726C122.571 29.8942 122.551 30.4024 122.373 30.8974C122.196 31.3923 121.873 31.8329 121.405 32.2192C120.945 32.5908 120.373 32.8682 119.69 33.0514Z" fill="white"/>
</svg>
