<svg width="544" height="84" viewBox="0 0 544 84" fill="none" xmlns="http://www.w3.org/2000/svg">
<rect width="535" height="84" rx="10" fill="#EFEFF3"/>
<rect width="2" height="3" transform="matrix(-1 0 0 1 544 41)" fill="#898E9C"/>
<rect width="2" height="3" transform="matrix(-1 0 0 1 412 41)" fill="#898E9C"/>
<rect width="2" height="3" transform="matrix(-1 0 0 1 280 41)" fill="#898E9C"/>
<rect width="2" height="3" transform="matrix(-1 0 0 1 540 41)" fill="#898E9C"/>
<rect width="2" height="3" transform="matrix(-1 0 0 1 408 41)" fill="#898E9C"/>
<rect width="2" height="3" transform="matrix(-1 0 0 1 276 41)" fill="#898E9C"/>
<rect width="2" height="5" transform="matrix(-1 0 0 1 536 40)" fill="#898E9C"/>
<rect width="2" height="5" transform="matrix(-1 0 0 1 404 40)" fill="#898E9C"/>
<rect width="2" height="5" transform="matrix(-1 0 0 1 272 40)" fill="#898E9C"/>
<rect width="2" height="7" transform="matrix(-1 0 0 1 532 39)" fill="#898E9C"/>
<rect width="2" height="7" transform="matrix(-1 0 0 1 400 39)" fill="#898E9C"/>
<rect width="2" height="9" transform="matrix(-1 0 0 1 268 38)" fill="#898E9C"/>
<rect width="2" height="3" transform="matrix(-1 0 0 1 528 41)" fill="#898E9C"/>
<rect width="2" height="3" transform="matrix(-1 0 0 1 396 41)" fill="#898E9C"/>
<rect width="2" height="3" transform="matrix(-1 0 0 1 264 41)" fill="#898E9C"/>
<rect width="2" height="7" transform="matrix(-1 0 0 1 524 39)" fill="#898E9C"/>
<rect width="2" height="7" transform="matrix(-1 0 0 1 392 39)" fill="#898E9C"/>
<rect width="2" height="9" transform="matrix(-1 0 0 1 260 38)" fill="#898E9C"/>
<rect width="2" height="11" transform="matrix(-1 0 0 1 520 37)" fill="#898E9C"/>
<rect width="2" height="11" transform="matrix(-1 0 0 1 388 37)" fill="#898E9C"/>
<rect width="2" height="13" transform="matrix(-1 0 0 1 256 36)" fill="#898E9C"/>
<rect width="2" height="7" transform="matrix(-1 0 0 1 516 39)" fill="#898E9C"/>
<rect width="2" height="7" transform="matrix(-1 0 0 1 384 39)" fill="#898E9C"/>
<rect width="2" height="9" transform="matrix(-1 0 0 1 252 38)" fill="#898E9C"/>
<rect width="2" height="13" transform="matrix(-1 0 0 1 512 36)" fill="#898E9C"/>
<rect width="2" height="13" transform="matrix(-1 0 0 1 380 36)" fill="#898E9C"/>
<rect width="2" height="15" transform="matrix(-1 0 0 1 248 35)" fill="#898E9C"/>
<rect width="2" height="13" transform="matrix(-1 0 0 1 508 36)" fill="#898E9C"/>
<rect width="2" height="13" transform="matrix(-1 0 0 1 376 36)" fill="#898E9C"/>
<rect width="2" height="15" transform="matrix(-1 0 0 1 244 35)" fill="#898E9C"/>
<rect width="2" height="15" transform="matrix(-1 0 0 1 504 35)" fill="#898E9C"/>
<rect width="2" height="15" transform="matrix(-1 0 0 1 372 35)" fill="#898E9C"/>
<rect width="2" height="17" transform="matrix(-1 0 0 1 240 34)" fill="#898E9C"/>
<rect width="2" height="23" transform="matrix(-1 0 0 1 500 31)" fill="#898E9C"/>
<rect width="2" height="23" transform="matrix(-1 0 0 1 368 31)" fill="#898E9C"/>
<rect width="2" height="27" transform="matrix(-1 0 0 1 236 29)" fill="#898E9C"/>
<rect width="2" height="17" transform="matrix(-1 0 0 1 496 34)" fill="#898E9C"/>
<rect width="2" height="7" transform="matrix(-1 0 0 1 364 39)" fill="#898E9C"/>
<rect width="2" height="17" transform="matrix(-1 0 0 1 232 34)" fill="#898E9C"/>
<rect width="2" height="27" transform="matrix(-1 0 0 1 492 29)" fill="#898E9C"/>
<rect width="2" height="13" transform="matrix(-1 0 0 1 360 36)" fill="#898E9C"/>
<rect width="2" height="27" transform="matrix(-1 0 0 1 228 29)" fill="#898E9C"/>
<rect width="2" height="27" transform="matrix(-1 0 0 1 148 29)" fill="#898E9C"/>
<rect width="2" height="29" transform="matrix(-1 0 0 1 488 28)" fill="#898E9C"/>
<rect width="2" height="13" transform="matrix(-1 0 0 1 356 36)" fill="#898E9C"/>
<rect width="2" height="29" transform="matrix(-1 0 0 1 224 28)" fill="#898E9C"/>
<rect width="2" height="29" transform="matrix(-1 0 0 1 144 28)" fill="#898E9C"/>
<rect width="2" height="29" transform="matrix(-1 0 0 1 484 28)" fill="#898E9C"/>
<rect width="2" height="13" transform="matrix(-1 0 0 1 352 36)" fill="#898E9C"/>
<rect width="2" height="17" transform="matrix(-1 0 0 1 220 34)" fill="#898E9C"/>
<rect width="2" height="17" transform="matrix(-1 0 0 1 140 34)" fill="#898E9C"/>
<rect width="2" height="19" transform="matrix(-1 0 0 1 480 33)" fill="#898E9C"/>
<rect width="2" height="19" transform="matrix(-1 0 0 1 348 33)" fill="#898E9C"/>
<rect width="2" height="11" transform="matrix(-1 0 0 1 216 37)" fill="#898E9C"/>
<rect width="2" height="11" transform="matrix(-1 0 0 1 136 37)" fill="#898E9C"/>
<rect width="2" height="15" transform="matrix(-1 0 0 1 476 35)" fill="#898E9C"/>
<rect width="2" height="15" transform="matrix(-1 0 0 1 344 35)" fill="#898E9C"/>
<rect width="2" height="9" transform="matrix(-1 0 0 1 212 38)" fill="#898E9C"/>
<rect width="2" height="9" transform="matrix(-1 0 0 1 132 38)" fill="#898E9C"/>
<rect width="2" height="13" transform="matrix(-1 0 0 1 472 36)" fill="#898E9C"/>
<rect width="2" height="13" transform="matrix(-1 0 0 1 340 36)" fill="#898E9C"/>
<rect width="2" height="7" transform="matrix(-1 0 0 1 208 39)" fill="#898E9C"/>
<rect width="2" height="7" transform="matrix(-1 0 0 1 128 39)" fill="#898E9C"/>
<rect width="2" height="7" transform="matrix(-1 0 0 1 468 39)" fill="#898E9C"/>
<rect width="2" height="11" transform="matrix(-1 0 0 1 336 37)" fill="#898E9C"/>
<rect width="2" height="7" transform="matrix(-1 0 0 1 204 39)" fill="#898E9C"/>
<rect width="2" height="7" transform="matrix(-1 0 0 1 124 39)" fill="#898E9C"/>
<rect width="2" height="3" transform="matrix(-1 0 0 1 464 41)" fill="#898E9C"/>
<rect width="2" height="5" transform="matrix(-1 0 0 1 332 40)" fill="#898E9C"/>
<rect width="2" height="3" transform="matrix(-1 0 0 1 200 41)" fill="#898E9C"/>
<rect width="2" height="3" transform="matrix(-1 0 0 1 120 41)" fill="#898E9C"/>
<rect width="2" height="3" transform="matrix(-1 0 0 1 460 41)" fill="#898E9C"/>
<rect width="2" height="5" transform="matrix(-1 0 0 1 328 40)" fill="#898E9C"/>
<rect width="2" height="3" transform="matrix(-1 0 0 1 196 41)" fill="#898E9C"/>
<rect width="2" height="3" transform="matrix(-1 0 0 1 116 41)" fill="#898E9C"/>
<rect width="2" height="3" transform="matrix(-1 0 0 1 456 41)" fill="#898E9C"/>
<rect width="2" height="5" transform="matrix(-1 0 0 1 324 40)" fill="#898E9C"/>
<rect width="2" height="3" transform="matrix(-1 0 0 1 192 41)" fill="#898E9C"/>
<rect width="2" height="3" transform="matrix(-1 0 0 1 112 41)" fill="#898E9C"/>
<rect width="2" height="13" transform="matrix(-1 0 0 1 452 36)" fill="#898E9C"/>
<rect width="2" height="21" transform="matrix(-1 0 0 1 320 32)" fill="#898E9C"/>
<rect width="2" height="13" transform="matrix(-1 0 0 1 188 36)" fill="#898E9C"/>
<rect width="2" height="13" transform="matrix(-1 0 0 1 108 36)" fill="#898E9C"/>
<rect width="2" height="17" transform="matrix(-1 0 0 1 448 34)" fill="#898E9C"/>
<rect width="2" height="17" transform="matrix(-1 0 0 1 316 34)" fill="#898E9C"/>
<rect width="2" height="17" transform="matrix(-1 0 0 1 184 34)" fill="#898E9C"/>
<rect width="2" height="17" transform="matrix(-1 0 0 1 104 34)" fill="#898E9C"/>
<rect width="2" height="11" transform="matrix(-1 0 0 1 444 37)" fill="#898E9C"/>
<rect width="2" height="11" transform="matrix(-1 0 0 1 312 37)" fill="#898E9C"/>
<rect width="2" height="11" transform="matrix(-1 0 0 1 180 37)" fill="#898E9C"/>
<rect width="2" height="11" transform="matrix(-1 0 0 1 100 37)" fill="#898E9C"/>
<rect width="2" height="15" transform="matrix(-1 0 0 1 440 35)" fill="#898E9C"/>
<rect width="2" height="15" transform="matrix(-1 0 0 1 308 35)" fill="#898E9C"/>
<rect width="2" height="15" transform="matrix(-1 0 0 1 176 35)" fill="#898E9C"/>
<rect width="2" height="15" transform="matrix(-1 0 0 1 96 35)" fill="#898E9C"/>
<rect width="2" height="19" transform="matrix(-1 0 0 1 436 33)" fill="#898E9C"/>
<rect width="2" height="19" transform="matrix(-1 0 0 1 304 33)" fill="#898E9C"/>
<rect width="2" height="9" transform="matrix(-1 0 0 1 172 38)" fill="#898E9C"/>
<rect width="2" height="9" transform="matrix(-1 0 0 1 92 38)" fill="#898E9C"/>
<rect width="2" height="15" transform="matrix(-1 0 0 1 432 35)" fill="#898E9C"/>
<rect width="2" height="15" transform="matrix(-1 0 0 1 300 35)" fill="#898E9C"/>
<rect width="2" height="7" transform="matrix(-1 0 0 1 168 39)" fill="#898E9C"/>
<rect width="2" height="7" transform="matrix(-1 0 0 1 88 39)" fill="#898E9C"/>
<rect width="2" height="19" transform="matrix(-1 0 0 1 428 33)" fill="#898E9C"/>
<rect width="2" height="19" transform="matrix(-1 0 0 1 296 33)" fill="#898E9C"/>
<rect width="2" height="9" transform="matrix(-1 0 0 1 164 38)" fill="#898E9C"/>
<rect width="2" height="9" transform="matrix(-1 0 0 1 84 38)" fill="#898E9C"/>
<rect width="2" height="17" transform="matrix(-1 0 0 1 424 34)" fill="#898E9C"/>
<rect width="2" height="17" transform="matrix(-1 0 0 1 292 34)" fill="#898E9C"/>
<rect width="2" height="9" transform="matrix(-1 0 0 1 160 38)" fill="#898E9C"/>
<rect width="2" height="9" transform="matrix(-1 0 0 1 80 38)" fill="#898E9C"/>
<rect width="2" height="21" transform="matrix(-1 0 0 1 420 32)" fill="#898E9C"/>
<rect width="2" height="21" transform="matrix(-1 0 0 1 288 32)" fill="#898E9C"/>
<rect width="2" height="11" transform="matrix(-1 0 0 1 156 37)" fill="#898E9C"/>
<rect width="2" height="11" transform="matrix(-1 0 0 1 76 37)" fill="#898E9C"/>
<rect width="2" height="13" transform="matrix(-1 0 0 1 416 36)" fill="#898E9C"/>
<rect width="2" height="13" transform="matrix(-1 0 0 1 284 36)" fill="#898E9C"/>
<rect width="2" height="13" transform="matrix(-1 0 0 1 152 36)" fill="#898E9C"/>
<rect width="2" height="13" transform="matrix(-1 0 0 1 72 36)" fill="#898E9C"/>
<path d="M32 49V36L44 34V47" stroke="#3B404A" stroke-width="2" stroke-linecap="round" stroke-linejoin="round"/>
<path d="M29 52C30.6569 52 32 50.6569 32 49C32 47.3431 30.6569 46 29 46C27.3431 46 26 47.3431 26 49C26 50.6569 27.3431 52 29 52Z" stroke="#3B404A" stroke-width="2" stroke-linecap="round" stroke-linejoin="round"/>
<path d="M41 50C42.6569 50 44 48.6569 44 47C44 45.3431 42.6569 44 41 44C39.3431 44 38 45.3431 38 47C38 48.6569 39.3431 50 41 50Z" stroke="#3B404A" stroke-width="2" stroke-linecap="round" stroke-linejoin="round"/>
</svg>
