<svg width="264" height="216" viewBox="0 0 264 216" fill="none" xmlns="http://www.w3.org/2000/svg">
<path d="M32.9214 119.093L11.1493 114.116L31.9498 124.441C57.1488 167.63 153.389 124.635 192.649 114.116C231.909 103.596 249.154 89.4357 245.974 77.5686C242.795 65.7016 214.769 64.3076 181.679 73.1742C155.206 80.2675 40.9942 113.326 32.9214 119.093Z" fill="#FF8057"/>
<path d="M62.8968 123.659C63.167 124.668 63.0445 125.601 62.5291 126.46C62.0223 127.304 61.0618 127.915 59.6477 128.294L57.3179 128.918L58.6736 133.978L57.0914 134.402L53.8442 122.283L57.7562 121.235C59.124 120.869 60.2499 120.921 61.134 121.392C62.0297 121.86 62.6173 122.616 62.8968 123.659ZM59.2983 126.99C60.1792 126.754 60.7771 126.389 61.0919 125.895C61.4066 125.4 61.4693 124.8 61.2799 124.092C60.8792 122.597 59.8211 122.079 58.1056 122.539L55.7758 123.163L56.9685 127.614L59.2983 126.99ZM66.6039 123.299C66.7361 122.68 67.0168 122.152 67.4461 121.713C67.8869 121.272 68.4782 120.952 69.2201 120.754L69.658 122.388L69.2407 122.5C67.4673 122.975 66.8383 124.175 67.3539 126.099L68.7422 131.28L67.16 131.704L64.607 122.176L66.1892 121.752L66.6039 123.299ZM80.9651 122.508C81.0458 122.809 81.1139 123.132 81.1691 123.478L73.5538 125.518C73.8633 126.442 74.3793 127.092 75.1017 127.47C75.8326 127.833 76.6154 127.903 77.4499 127.68C78.1338 127.496 78.6598 127.188 79.028 126.754C79.4047 126.305 79.6143 125.789 79.6569 125.206L81.3608 124.75C81.3512 125.734 81.0415 126.618 80.4318 127.402C79.8189 128.175 78.9446 128.714 77.8086 129.018C76.9045 129.261 76.0388 129.275 75.2115 129.062C74.3957 128.846 73.6856 128.421 73.0811 127.788C72.4735 127.143 72.0378 126.328 71.7738 125.343C71.5098 124.358 71.4754 123.441 71.6708 122.594C71.8661 121.747 72.2645 121.031 72.8659 120.448C73.4759 119.849 74.2445 119.426 75.1718 119.177C76.0759 118.935 76.9285 118.918 77.7295 119.126C78.5306 119.333 79.2098 119.735 79.767 120.331C80.3328 120.913 80.7321 121.638 80.9651 122.508ZM79.2422 122.615C79.0807 122.012 78.8092 121.532 78.4277 121.175C78.0431 120.806 77.5894 120.573 77.0668 120.477C76.5526 120.367 76.0173 120.386 75.461 120.535C74.6612 120.749 74.0456 121.187 73.6143 121.85C73.1946 122.509 73.0653 123.301 73.2264 124.227L79.2422 122.615ZM87.5834 124.666L88.3775 115.807L90.064 115.355L88.8788 125.884L87.0358 126.378L80.7447 117.852L82.4486 117.395L87.5834 124.666ZM92.0234 113.171C91.7221 113.252 91.4391 113.216 91.1746 113.063C90.91 112.911 90.7374 112.684 90.6566 112.382C90.5759 112.081 90.6119 111.798 90.7646 111.533C90.9173 111.269 91.1444 111.096 91.4458 111.015C91.7355 110.938 92.0069 110.977 92.2598 111.133C92.5244 111.285 92.697 111.512 92.7778 111.814C92.8585 112.115 92.8226 112.398 92.6698 112.663C92.5287 112.924 92.3132 113.094 92.0234 113.171ZM93.2031 114.514L95.7561 124.042L94.1739 124.466L91.6209 114.938L93.2031 114.514ZM105.772 115.861C105.852 116.162 105.92 116.485 105.976 116.831L98.3603 118.871C98.6699 119.795 99.1859 120.445 99.9083 120.823C100.639 121.187 101.422 121.256 102.256 121.033C102.94 120.849 103.466 120.541 103.835 120.107C104.211 119.658 104.421 119.142 104.463 118.559L106.167 118.103C106.158 119.087 105.848 119.971 105.238 120.755C104.626 121.528 103.751 122.067 102.615 122.371C101.711 122.614 100.845 122.628 100.018 122.415C99.2022 122.199 98.4921 121.774 97.8877 121.141C97.2801 120.496 96.8443 119.681 96.5803 118.696C96.3163 117.711 96.282 116.795 96.4773 115.947C96.6726 115.1 97.071 114.384 97.6725 113.801C98.2824 113.202 99.0511 112.779 99.9784 112.531C100.882 112.288 101.735 112.271 102.536 112.479C103.337 112.687 104.016 113.089 104.574 113.685C105.139 114.266 105.539 114.991 105.772 115.861ZM104.049 115.968C103.887 115.365 103.616 114.885 103.234 114.528C102.85 114.159 102.396 113.926 101.873 113.83C101.359 113.72 100.824 113.739 100.268 113.888C99.4677 114.102 98.8522 114.541 98.4209 115.203C98.0012 115.862 97.8719 116.654 98.033 117.58L104.049 115.968ZM119.374 107.501L118.954 117.826L117.319 118.264L112.998 111.316L112.729 119.494L111.095 119.932L105.551 111.205L107.168 110.772L111.502 118.183L111.724 109.551L113.341 109.118L117.801 116.514L117.809 107.921L119.374 107.501ZM133.786 103.64L131.803 119.191L130.169 119.629L130.817 114.535L124.449 106.141L126.205 105.671L131.264 112.589L132.151 104.078L133.786 103.64ZM142.127 111.784C141.234 112.024 140.368 112.038 139.529 111.828C138.702 111.615 137.98 111.193 137.364 110.563C136.757 109.919 136.321 109.104 136.057 108.118C135.796 107.145 135.775 106.231 135.993 105.378C136.22 104.509 136.646 103.78 137.271 103.19C137.892 102.589 138.655 102.167 139.559 101.925C140.463 101.683 141.335 101.667 142.174 101.877C143.01 102.075 143.736 102.489 144.352 103.119C144.979 103.746 145.425 104.552 145.689 105.538C145.953 106.523 145.966 107.451 145.727 108.323C145.497 109.179 145.066 109.91 144.432 110.514C143.799 111.119 143.031 111.542 142.127 111.784ZM141.754 110.393C142.322 110.241 142.819 109.965 143.246 109.565C143.673 109.165 143.966 108.658 144.124 108.044C144.295 107.427 144.277 106.736 144.072 105.971C143.867 105.206 143.543 104.597 143.098 104.145C142.654 103.692 142.154 103.404 141.599 103.279C141.041 103.143 140.478 103.151 139.91 103.303C139.33 103.458 138.833 103.735 138.417 104.132C138.011 104.514 137.734 105.011 137.587 105.621C137.44 106.232 137.469 106.92 137.674 107.685C137.882 108.462 138.197 109.079 138.618 109.538C139.05 109.994 139.54 110.291 140.087 110.43C140.63 110.558 141.186 110.546 141.754 110.393ZM154.947 97.9694L157.5 107.497L155.918 107.921L155.541 106.513C155.37 107.08 155.049 107.576 154.579 108.001C154.117 108.41 153.562 108.702 152.913 108.876C152.171 109.074 151.464 109.102 150.792 108.959C150.117 108.805 149.524 108.467 149.011 107.946C148.511 107.421 148.142 106.719 147.906 105.838L146.411 100.257L147.975 99.8375L149.415 105.21C149.667 106.149 150.098 106.81 150.71 107.192C151.319 107.563 152.035 107.639 152.858 107.418C153.704 107.191 154.301 106.752 154.648 106.1C154.995 105.448 155.035 104.624 154.768 103.627L153.365 98.3933L154.947 97.9694ZM159.616 98.377C159.748 97.7577 160.029 97.229 160.458 96.791C160.899 96.3499 161.49 96.0299 162.232 95.8312L162.67 97.4655L162.253 97.5773C160.479 98.0525 159.85 99.2522 160.366 101.176L161.754 106.358L160.172 106.781L157.619 97.2536L159.201 96.8296L159.616 98.377ZM175.491 102.845C174.598 103.084 173.732 103.098 172.893 102.888C172.066 102.675 171.344 102.254 170.728 101.624C170.121 100.979 169.685 100.164 169.421 99.1786C169.16 98.2049 169.139 97.2913 169.357 96.4376C169.584 95.5693 170.01 94.8402 170.635 94.2505C171.256 93.6491 172.019 93.2273 172.923 92.9851C173.827 92.7428 174.699 92.7267 175.538 92.9367C176.374 93.1351 177.1 93.5494 177.716 94.1794C178.343 94.8063 178.789 95.6124 179.053 96.5976C179.317 97.5829 179.33 98.5112 179.091 99.3827C178.861 100.239 178.43 100.97 177.796 101.574C177.163 102.179 176.395 102.602 175.491 102.845ZM175.118 101.454C175.686 101.301 176.183 101.025 176.61 100.625C177.037 100.225 177.33 99.7179 177.489 99.104C177.659 98.4869 177.641 97.7959 177.436 97.0309C177.231 96.2659 176.907 95.6572 176.462 95.2047C176.018 94.7523 175.518 94.4638 174.963 94.3392C174.405 94.2031 173.842 94.2111 173.274 94.3633C172.694 94.5186 172.197 94.7947 171.782 95.1918C171.375 95.5741 171.098 96.0707 170.951 96.6815C170.804 97.2924 170.833 97.9803 171.038 98.7453C171.246 99.5219 171.561 100.14 171.982 100.598C172.414 101.054 172.904 101.351 173.451 101.49C173.994 101.618 174.55 101.606 175.118 101.454ZM188.312 89.0295L190.865 98.5574L189.282 98.9814L188.905 97.573C188.734 98.1406 188.413 98.6365 187.943 99.0606C187.481 99.4701 186.926 99.7618 186.277 99.9357C185.535 100.134 184.828 100.162 184.156 100.019C183.481 99.8649 182.888 99.527 182.375 99.0059C181.875 98.4816 181.506 97.779 181.27 96.8981L179.775 91.317L181.339 90.8977L182.779 96.2701C183.031 97.209 183.462 97.8698 184.074 98.2525C184.683 98.6236 185.399 98.6988 186.222 98.4783C187.068 98.2516 187.665 97.8122 188.012 97.1602C188.359 96.5081 188.399 95.6837 188.132 94.6868L186.729 89.4535L188.312 89.0295ZM193.262 89.1006L194.767 94.7165C194.891 95.1801 195.078 95.4841 195.328 95.6283C195.575 95.761 195.942 95.7621 196.429 95.6316L197.593 95.3195L197.952 96.6583L196.526 97.0403C195.646 97.2763 194.93 97.2505 194.381 96.9629C193.832 96.6752 193.433 96.0677 193.185 95.1404L191.68 89.5245L190.446 89.8553L190.096 88.5513L191.331 88.2205L190.688 85.8212L192.27 85.3972L192.913 87.7966L195.399 87.1304L195.749 88.4344L193.262 89.1006ZM199.369 87.9488C199.536 87.3202 199.878 86.7439 200.396 86.22C200.923 85.6813 201.598 85.3018 202.421 85.0813C203.267 84.8545 204.086 84.8524 204.879 85.0748C205.683 85.2942 206.382 85.722 206.974 86.3582C207.564 86.9828 207.989 87.782 208.25 88.7556C208.508 89.7177 208.541 90.6282 208.349 91.4873C208.156 92.3463 207.769 93.0776 207.185 93.6812C206.613 94.2818 205.904 94.6954 205.058 94.9221C204.246 95.1395 203.479 95.1524 202.757 94.9608C202.043 94.7545 201.451 94.4224 200.981 93.9646L202.663 100.241L201.08 100.665L197.316 86.6167L198.898 86.1928L199.369 87.9488ZM206.633 89.1889C206.441 88.4702 206.128 87.8832 205.696 87.4276C205.263 86.9721 204.76 86.672 204.187 86.5273C203.626 86.3796 203.05 86.3849 202.458 86.5433C201.879 86.6986 201.379 86.9879 200.958 87.4112C200.546 87.8199 200.262 88.337 200.106 88.9625C199.959 89.5733 199.981 90.2323 200.17 90.9393C200.363 91.658 200.677 92.2509 201.113 92.718C201.557 93.1705 202.061 93.4763 202.626 93.6357C203.199 93.7803 203.775 93.775 204.355 93.6197C204.946 93.4613 205.447 93.1778 205.86 92.7691C206.28 92.3458 206.564 91.8287 206.711 91.2179C206.855 90.5955 206.829 89.9191 206.633 89.1889ZM217.516 81.2043L220.069 90.7322L218.486 91.1561L218.109 89.7478C217.938 90.3154 217.618 90.8112 217.147 91.2354C216.686 91.6449 216.13 91.9366 215.481 92.1105C214.739 92.3093 214.032 92.3372 213.361 92.1942C212.686 92.0396 212.092 91.7018 211.579 91.1806C211.079 90.6564 210.71 89.9538 210.474 89.0728L208.979 83.4917L210.544 83.0724L211.983 88.4449C212.235 89.3838 212.666 90.0446 213.278 90.4272C213.887 90.7983 214.603 90.8736 215.426 90.6531C216.272 90.4264 216.869 89.987 217.216 89.3349C217.563 88.6829 217.603 87.8584 217.336 86.8616L215.934 81.6282L217.516 81.2043ZM222.466 81.2754L223.971 86.8912C224.095 87.3549 224.282 87.6588 224.532 87.8031C224.779 87.9357 225.146 87.9369 225.633 87.8064L226.798 87.4943L227.156 88.833L225.731 89.2151C224.85 89.4511 224.135 89.4253 223.585 89.1376C223.036 88.85 222.638 88.2425 222.389 87.3152L220.884 81.6993L219.65 82.0301L219.3 80.7261L220.535 80.3953L219.892 77.9959L221.474 77.572L222.117 79.9714L224.603 79.3052L224.953 80.6092L222.466 81.2754Z" fill="white"/>
</svg>
