<svg width="201" height="44" viewBox="0 0 201 44" fill="none" xmlns="http://www.w3.org/2000/svg">
<path d="M19.742 11.4427L6.10352e-05 0.99987L17.4194 16.357C17.4194 36.0141 39.5 41.6804 114.5 43.3857C185.5 45 201 34.1714 201 21.8857C201 9.59997 171.435 3.71117 114.5 0.999977C51.5 -2 29.0323 7.96177 19.742 11.4427Z" fill="#FF8057"/>
<path d="M47.9468 15.4539V16.7859H44.5268V27.9999H42.8888V16.7859H39.4508V15.4539H47.9468ZM50.809 16.5339C50.497 16.5339 50.233 16.4259 50.017 16.2099C49.801 15.9939 49.693 15.7299 49.693 15.4179C49.693 15.1059 49.801 14.8419 50.017 14.6259C50.233 14.4099 50.497 14.3019 50.809 14.3019C51.109 14.3019 51.361 14.4099 51.565 14.6259C51.781 14.8419 51.889 15.1059 51.889 15.4179C51.889 15.7299 51.781 15.9939 51.565 16.2099C51.361 16.4259 51.109 16.5339 50.809 16.5339ZM51.601 18.1359V27.9999H49.963V18.1359H51.601ZM66.2547 17.9559C67.0227 17.9559 67.7067 18.1179 68.3067 18.4419C68.9067 18.7539 69.3807 19.2279 69.7287 19.8639C70.0767 20.4999 70.2507 21.2739 70.2507 22.1859V27.9999H68.6307V22.4199C68.6307 21.4359 68.3847 20.6859 67.8927 20.1699C67.4127 19.6419 66.7587 19.3779 65.9307 19.3779C65.0787 19.3779 64.4007 19.6539 63.8967 20.2059C63.3927 20.7459 63.1407 21.5319 63.1407 22.5639V27.9999H61.5207V22.4199C61.5207 21.4359 61.2747 20.6859 60.7827 20.1699C60.3027 19.6419 59.6487 19.3779 58.8207 19.3779C57.9687 19.3779 57.2907 19.6539 56.7867 20.2059C56.2827 20.7459 56.0307 21.5319 56.0307 22.5639V27.9999H54.3927V18.1359H56.0307V19.5579C56.3547 19.0419 56.7867 18.6459 57.3267 18.3699C57.8787 18.0939 58.4847 17.9559 59.1447 17.9559C59.9727 17.9559 60.7047 18.1419 61.3407 18.5139C61.9767 18.8859 62.4507 19.4319 62.7627 20.1519C63.0387 19.4559 63.4947 18.9159 64.1307 18.5319C64.7667 18.1479 65.4747 17.9559 66.2547 17.9559ZM81.9377 22.6899C81.9377 23.0019 81.9197 23.3319 81.8837 23.6799H73.9997C74.0597 24.6519 74.3897 25.4139 74.9897 25.9659C75.6017 26.5059 76.3397 26.7759 77.2037 26.7759C77.9117 26.7759 78.4997 26.6139 78.9677 26.2899C79.4477 25.9539 79.7837 25.5099 79.9757 24.9579H81.7397C81.4757 25.9059 80.9477 26.6799 80.1557 27.2799C79.3637 27.8679 78.3797 28.1619 77.2037 28.1619C76.2677 28.1619 75.4277 27.9519 74.6837 27.5319C73.9517 27.1119 73.3757 26.5179 72.9557 25.7499C72.5357 24.9699 72.3257 24.0699 72.3257 23.0499C72.3257 22.0299 72.5297 21.1359 72.9377 20.3679C73.3457 19.5999 73.9157 19.0119 74.6477 18.6039C75.3917 18.1839 76.2437 17.9739 77.2037 17.9739C78.1397 17.9739 78.9677 18.1779 79.6877 18.5859C80.4077 18.9939 80.9597 19.5579 81.3437 20.2779C81.7397 20.9859 81.9377 21.7899 81.9377 22.6899ZM80.2457 22.3479C80.2457 21.7239 80.1077 21.1899 79.8317 20.7459C79.5557 20.2899 79.1777 19.9479 78.6977 19.7199C78.2297 19.4799 77.7077 19.3599 77.1317 19.3599C76.3037 19.3599 75.5957 19.6239 75.0077 20.1519C74.4317 20.6799 74.1017 21.4119 74.0177 22.3479H80.2457ZM89.7446 16.5339C89.4326 16.5339 89.1686 16.4259 88.9526 16.2099C88.7366 15.9939 88.6286 15.7299 88.6286 15.4179C88.6286 15.1059 88.7366 14.8419 88.9526 14.6259C89.1686 14.4099 89.4326 14.3019 89.7446 14.3019C90.0446 14.3019 90.2966 14.4099 90.5006 14.6259C90.7166 14.8419 90.8246 15.1059 90.8246 15.4179C90.8246 15.7299 90.7166 15.9939 90.5006 16.2099C90.2966 16.4259 90.0446 16.5339 89.7446 16.5339ZM90.5366 18.1359V27.9999H88.8986V18.1359H90.5366ZM95.3263 19.4859V25.2999C95.3263 25.7799 95.4283 26.1219 95.6323 26.3259C95.8363 26.5179 96.1903 26.6139 96.6943 26.6139H97.9003V27.9999H96.4243C95.5123 27.9999 94.8283 27.7899 94.3723 27.3699C93.9163 26.9499 93.6883 26.2599 93.6883 25.2999V19.4859H92.4103V18.1359H93.6883V15.6519H95.3263V18.1359H97.9003V19.4859H95.3263ZM106.322 19.9539C106.646 19.3899 107.126 18.9219 107.762 18.5499C108.41 18.1659 109.16 17.9739 110.012 17.9739C110.888 17.9739 111.68 18.1839 112.388 18.6039C113.108 19.0239 113.672 19.6179 114.08 20.3859C114.488 21.1419 114.692 22.0239 114.692 23.0319C114.692 24.0279 114.488 24.9159 114.08 25.6959C113.672 26.4759 113.108 27.0819 112.388 27.5139C111.68 27.9459 110.888 28.1619 110.012 28.1619C109.172 28.1619 108.428 27.9759 107.78 27.6039C107.144 27.2199 106.658 26.7459 106.322 26.1819V32.6799H104.684V18.1359H106.322V19.9539ZM113.018 23.0319C113.018 22.2879 112.868 21.6399 112.568 21.0879C112.268 20.5359 111.86 20.1159 111.344 19.8279C110.84 19.5399 110.282 19.3959 109.67 19.3959C109.07 19.3959 108.512 19.5459 107.996 19.8459C107.492 20.1339 107.084 20.5599 106.772 21.1239C106.472 21.6759 106.322 22.3179 106.322 23.0499C106.322 23.7939 106.472 24.4479 106.772 25.0119C107.084 25.5639 107.492 25.9899 107.996 26.2899C108.512 26.5779 109.07 26.7219 109.67 26.7219C110.282 26.7219 110.84 26.5779 111.344 26.2899C111.86 25.9899 112.268 25.5639 112.568 25.0119C112.868 24.4479 113.018 23.7879 113.018 23.0319ZM125.848 22.6899C125.848 23.0019 125.83 23.3319 125.794 23.6799H117.91C117.97 24.6519 118.3 25.4139 118.9 25.9659C119.512 26.5059 120.25 26.7759 121.114 26.7759C121.822 26.7759 122.41 26.6139 122.878 26.2899C123.358 25.9539 123.694 25.5099 123.886 24.9579H125.65C125.386 25.9059 124.858 26.6799 124.066 27.2799C123.274 27.8679 122.29 28.1619 121.114 28.1619C120.178 28.1619 119.338 27.9519 118.594 27.5319C117.862 27.1119 117.286 26.5179 116.866 25.7499C116.446 24.9699 116.236 24.0699 116.236 23.0499C116.236 22.0299 116.44 21.1359 116.848 20.3679C117.256 19.5999 117.826 19.0119 118.558 18.6039C119.302 18.1839 120.154 17.9739 121.114 17.9739C122.05 17.9739 122.878 18.1779 123.598 18.5859C124.318 18.9939 124.87 19.5579 125.254 20.2779C125.65 20.9859 125.848 21.7899 125.848 22.6899ZM124.156 22.3479C124.156 21.7239 124.018 21.1899 123.742 20.7459C123.466 20.2899 123.088 19.9479 122.608 19.7199C122.14 19.4799 121.618 19.3599 121.042 19.3599C120.214 19.3599 119.506 19.6239 118.918 20.1519C118.342 20.6799 118.012 21.4119 117.928 22.3479H124.156ZM129.648 19.7379C129.936 19.1739 130.344 18.7359 130.872 18.4239C131.412 18.1119 132.066 17.9559 132.834 17.9559V19.6479H132.402C130.566 19.6479 129.648 20.6439 129.648 22.6359V27.9999H128.01V18.1359H129.648V19.7379ZM138.739 19.4859H136.669V27.9999H135.031V19.4859L133.753 19.4859V18.1359L135.031 18.1359V17.4339C135.031 16.3299 135.313 15.5259 135.877 15.0219C136.453 14.5059 137.371 14.2479 138.631 14.2479V15.6159C137.911 15.6159 137.401 15.7599 137.101 16.0479C136.813 16.3239 136.669 16.7859 136.669 17.4339V18.1359H138.739V19.4859ZM149.649 22.6899C149.649 23.0019 149.631 23.3319 149.595 23.6799H141.711C141.771 24.6519 142.101 25.4139 142.701 25.9659C143.313 26.5059 144.051 26.7759 144.915 26.7759C145.623 26.7759 146.211 26.6139 146.679 26.2899C147.159 25.9539 147.495 25.5099 147.687 24.9579H149.451C149.187 25.9059 148.659 26.6799 147.867 27.2799C147.075 27.8679 146.091 28.1619 144.915 28.1619C143.979 28.1619 143.139 27.9519 142.395 27.5319C141.663 27.1119 141.087 26.5179 140.667 25.7499C140.247 24.9699 140.037 24.0699 140.037 23.0499C140.037 22.0299 140.241 21.1359 140.649 20.3679C141.057 19.5999 141.627 19.0119 142.359 18.6039C143.103 18.1839 143.955 17.9739 144.915 17.9739C145.851 17.9739 146.679 18.1779 147.399 18.5859C148.119 18.9939 148.671 19.5579 149.055 20.2779C149.451 20.9859 149.649 21.7899 149.649 22.6899ZM147.957 22.3479C147.957 21.7239 147.819 21.1899 147.543 20.7459C147.267 20.2899 146.889 19.9479 146.409 19.7199C145.941 19.4799 145.419 19.3599 144.843 19.3599C144.015 19.3599 143.307 19.6239 142.719 20.1519C142.143 20.6799 141.813 21.4119 141.729 22.3479H147.957ZM151.199 23.0499C151.199 22.0299 151.403 21.1419 151.811 20.3859C152.219 19.6179 152.783 19.0239 153.503 18.6039C154.235 18.1839 155.069 17.9739 156.005 17.9739C157.217 17.9739 158.213 18.2679 158.993 18.8559C159.785 19.4439 160.307 20.2599 160.559 21.3039H158.795C158.627 20.7039 158.297 20.2299 157.805 19.8819C157.325 19.5339 156.725 19.3599 156.005 19.3599C155.069 19.3599 154.313 19.6839 153.737 20.3319C153.161 20.9679 152.873 21.8739 152.873 23.0499C152.873 24.2379 153.161 25.1559 153.737 25.8039C154.313 26.4519 155.069 26.7759 156.005 26.7759C156.725 26.7759 157.325 26.6079 157.805 26.2719C158.285 25.9359 158.615 25.4559 158.795 24.8319H160.559C160.295 25.8399 159.767 26.6499 158.975 27.2619C158.183 27.8619 157.193 28.1619 156.005 28.1619C155.069 28.1619 154.235 27.9519 153.503 27.5319C152.783 27.1119 152.219 26.5179 151.811 25.7499C151.403 24.9819 151.199 24.0819 151.199 23.0499ZM164.742 19.4859V25.2999C164.742 25.7799 164.844 26.1219 165.048 26.3259C165.252 26.5179 165.606 26.6139 166.11 26.6139H167.316V27.9999H165.84C164.928 27.9999 164.244 27.7899 163.788 27.3699C163.332 26.9499 163.104 26.2599 163.104 25.2999V19.4859H161.826V18.1359H163.104V15.6519H164.742V18.1359H167.316V19.4859H164.742ZM170.939 14.6799V27.9999H169.301V14.6799H170.939ZM182.227 18.1359L176.287 32.6439H174.595L176.539 27.8919L172.561 18.1359H174.379L177.475 26.1279L180.535 18.1359H182.227Z" fill="white"/>
</svg>
